# xmcd CD database file
#
# Track frame offsets:
#	150
#	35350
#	61602
#	84404
#	137888
#	157438
#	193138
#	237315
#	282700
#	320363
#
# Disc length: 4658 seconds
#
# Revision: 0
# Processed by: cddbd v1.5.2PL0 Copyright (c) Steve Scherf et al.
# Submitted via: CDex 1.70beta2
#
DISCID=9212300a
DTITLE=Tigran Hamasyan Trio - New Era
DYEAR=2007
DGENRE=Jazz
TTITLE0=Part 1 - Homesick
TTITLE1=Part 2 - New Era
TTITLE2=Leaving Paris
TTITLE3=Aparani Par (The Dance of Aparan) (Traditional Armenian folk dance)
TTITLE4=Well, you needn't
TTITLE5=Memories from Hankavan and now
TTITLE6=Gypsyology
TTITLE7=Zada es (You're an ill-fated girl) (Armenian folk song)
TTITLE8=Solar
TTITLE9=Forgotten world
EXTD=YEAR: 2007
EXTT0=
EXTT1=
EXTT2=
EXTT3=
EXTT4=
EXTT5=
EXTT6=
EXTT7=
EXTT8=
EXTT9=
PLAYORDER=
